<?xml version="1.0" encoding="utf-8"?>
<!-- Generator: Adobe Illustrator 24.0.2, SVG Export Plug-In . SVG Version: 6.00 Build 0)  -->
<svg version="1.1" id="Warstwa_1" xmlns="http://www.w3.org/2000/svg" xmlns:xlink="http://www.w3.org/1999/xlink" x="0px" y="0px"
	 viewBox="0 0 430 430" style="enable-background:new 0 0 430 430;" xml:space="preserve">
<style type="text/css">
	.st0{fill:#ebe6ef;}
	.st1{opacity:0.5;}
	.st2{fill:#121331;}
	.st3{fill:#3A3347;}
	.st4{fill:#4BB3FD;}
	.st5{fill:#9ce5f4;}
	.st6{fill:#e88c30;}
	.st7{fill:#2CA58D;}
	.st8{display:none;}
	.st9{display:inline;fill:none;stroke:#121331;stroke-width:7;stroke-linecap:round;stroke-linejoin:round;}
	.st10{display:none;fill:none;stroke:#121331;stroke-width:7;stroke-linecap:round;stroke-linejoin:round;stroke-miterlimit:10;}
	.st11{fill:#F9C9C0;}
	.st12{fill:#F28BA8;}
	.st13{fill:#646E78;}
	.st14{fill:#B26836;}
	.st15{opacity:0.6;}
	.st16{opacity:0.7;}
	.st17{fill:#92140C;}
	.st18{opacity:0;}
	.st19{opacity:0.4;}
	.st20{opacity:0.8;}
	.st21{fill:none;}
	.st22{opacity:0.2;clip-path:url(#SVGID_2_);}
	.st23{opacity:0.2;clip-path:url(#SVGID_4_);}
	.st24{opacity:0.2;clip-path:url(#SVGID_6_);}
	.st25{opacity:0.2;clip-path:url(#SVGID_8_);}
	.st26{opacity:0.2;clip-path:url(#SVGID_10_);}
	.st27{opacity:0.2;clip-path:url(#SVGID_12_);}
	.st28{fill:#FFFFFF;}
</style>
<g>
	<polygon class="st0" points="342.67,155.3 276.26,155.3 264.94,137.85 313.63,109.27 	"/>
</g>
<g class="st16">
	<polygon class="st0" points="279.26,153.3 209.11,153.3 181.22,106.73 229.85,77.78 264.3,130.23 266.87,134.13 266.87,134.14 
		267.14,134.56 	"/>
</g>
<g>
	<polygon class="st0" points="212.11,155.3 72.65,155.3 62.88,138.82 163.39,74.24 183.34,107.47 184,108.57 211.21,153.79 	"/>
</g>
<g>
	<polygon class="st0" points="279.26,153.3 209.11,153.3 181.22,106.73 229.85,77.78 264.3,130.23 266.87,134.13 266.87,134.14 
		267.14,134.56 	"/>
</g>
<g class="st16">
	<polygon class="st0" points="279.26,153.3 209.11,153.3 181.22,106.73 229.85,77.78 264.3,130.23 266.87,134.13 266.87,134.14 
		267.14,134.56 	"/>
</g>
<g>
	<g>
		<path class="st2" d="M342.67,158.8h-66.41c-1.18,0-2.29-0.6-2.93-1.59l-1.3-2c-0.7-1.08-0.75-2.45-0.14-3.58
			c0.3-0.56,0.74-1.01,1.27-1.33l-8.01-12.38c-0.52-0.8-0.69-1.78-0.47-2.71c0.22-0.93,0.81-1.73,1.63-2.21l45.55-26.75
			c1.63-0.96,3.72-0.45,4.73,1.15l29.04,46.03c0.68,1.08,0.72,2.44,0.1,3.56C345.12,158.11,343.95,158.8,342.67,158.8z
			 M282.42,151.8h53.9l-23.84-37.79L273,137.19l9.19,14.21C282.28,151.53,282.36,151.66,282.42,151.8z"/>
	</g>
	<g>
		<path class="st2" d="M279.26,156.8h-68.34c-1.23,0-2.37-0.64-3-1.7l-28.46-47.31c-0.48-0.8-0.62-1.75-0.39-2.65s0.8-1.68,1.6-2.15
			l47.39-28.22c1.61-0.96,3.69-0.48,4.72,1.09l38.25,58.27l11.18,17.27c0.7,1.08,0.75,2.45,0.14,3.57
			C281.72,156.1,280.54,156.8,279.26,156.8z M212.9,149.8h59.93l-11.45-17.65L228.76,82.5l-41.5,24.71L212.9,149.8z"/>
	</g>
	<g>
		<path class="st2" d="M212.11,158.8H72.65c-1.24,0-2.38-0.65-3.01-1.72l-9.77-16.48c-0.96-1.62-0.47-3.71,1.12-4.73L161.5,71.3
			c0.79-0.51,1.77-0.68,2.69-0.46c0.92,0.22,1.72,0.79,2.21,1.61L187,106.77l28.12,46.74c0.64,1.08,0.66,2.43,0.04,3.52
			S213.37,158.8,212.11,158.8z M74.64,151.8h131.29l-26.48-44l-17.21-28.66l-94.63,60.8L74.64,151.8z"/>
	</g>
</g>
<g>
	<path class="st5" d="M399.9,166.2v17.2c0,7.14-5.76,12.9-12.9,12.9h-2.15l-0.02,0.07l-7.15,24.8l-37.77,131.11
		c-3.29,11.4-15.59,20.65-27.45,20.65H119.12c-11.86,0-24.26-9.23-27.65-20.6L52.31,221.17l-6.16-20.66l-1.26-4.21H43
		c-7.14,0-12.9-5.76-12.9-12.9v-17.2c0-7.14,5.76-12.9,12.9-12.9h344C394.14,153.3,399.9,159.06,399.9,166.2z"/>
</g>
<g>
	<path class="st5" d="M399.9,166.2v17.2c0,7.14-5.76,12.9-12.9,12.9h-2.15l-0.02,0.07H44.91l-0.02-0.07H43
		c-7.14,0-12.9-5.76-12.9-12.9v-17.2c0-7.14,5.76-12.9,12.9-12.9h344C394.14,153.3,399.9,159.06,399.9,166.2z"/>
</g>
<g>
	<path class="st2" d="M257.83,345.35c-0.14,0-0.28-0.01-0.42-0.03c-1.92-0.23-3.29-1.97-3.06-3.89l10.92-90.95
		c0.23-1.92,1.96-3.29,3.89-3.06c1.92,0.23,3.29,1.97,3.06,3.89l-10.92,90.95C261.09,344.04,259.58,345.35,257.83,345.35z
		 M214.6,345.35c-0.01,0-0.01,0-0.02,0c-1.93-0.01-3.49-1.58-3.48-3.52l0.4-78.82c0.01-1.93,1.58-3.48,3.5-3.48
		c0.01,0,0.01,0,0.02,0c1.93,0.01,3.49,1.58,3.48,3.52l-0.4,78.82C218.09,343.79,216.52,345.35,214.6,345.35z M298.78,345.31
		c-0.27,0-0.54-0.03-0.81-0.09c-1.88-0.44-3.05-2.33-2.6-4.21l25.87-109.55c0.44-1.88,2.33-3.05,4.21-2.6
		c1.88,0.44,3.05,2.33,2.6,4.21l-25.87,109.55C301.81,344.22,300.37,345.31,298.78,345.31z M130.22,344.89
		c-1.59,0-3.03-1.1-3.41-2.71l-24.87-107.84c-0.43-1.88,0.74-3.76,2.62-4.2c1.88-0.44,3.76,0.74,4.2,2.62l24.87,107.84
		c0.43,1.88-0.74,3.76-2.62,4.2C130.74,344.86,130.48,344.89,130.22,344.89z M171.07,344.35c-1.76,0-3.28-1.33-3.47-3.12
		l-9.82-89.03c-0.21-1.92,1.17-3.65,3.09-3.86c1.92-0.21,3.65,1.17,3.86,3.1l9.82,89.03c0.21,1.92-1.17,3.65-3.09,3.86
		C171.32,344.34,171.19,344.35,171.07,344.35z"/>
</g>
<g class="st1">
	<polygon class="st5" points="384.9,196.37 377.75,221.17 52.38,221.17 46.22,200.51 45.1,196.45 	"/>
</g>
<g>
	<path class="st2" d="M312.46,376.43H119.12c-13.52,0-27.14-10.15-31-23.1L42.28,199.78c-8.71-0.38-15.68-7.58-15.68-16.38v-17.2
		c0-9.04,7.36-16.4,16.4-16.4h344c9.04,0,16.4,7.36,16.4,16.4v17.2c0,8.88-7.09,16.14-15.91,16.39l-44.21,153.46
		C339.52,366.25,325.99,376.43,312.46,376.43z M43,156.8c-5.18,0-9.4,4.22-9.4,9.4v17.2c0,5.18,4.22,9.4,9.4,9.4h1.89
		c1.55,0,2.91,1.01,3.35,2.5l7.42,24.87l39.16,131.16c2.93,9.81,14.05,18.1,24.3,18.1h193.34c10.22,0,21.25-8.3,24.09-18.12
		l44.92-155.91c0.43-1.5,1.82-2.6,3.38-2.6H387c5.18,0,9.4-4.22,9.4-9.4v-17.2c0-5.18-4.22-9.4-9.4-9.4H43z"/>
</g>
<g>
	<path class="st2" d="M384.83,199.87H44.91c-0.24,0-0.47-0.02-0.7-0.07H43c-9.04,0-16.4-7.36-16.4-16.4v-17.2
		c0-8.89,7.05-16.4,15.4-16.4h344c9.92,0,17.4,7.05,17.4,16.4v17.2c0,9.04-7.36,16.4-16.4,16.4h-1.49
		C385.29,199.85,385.06,199.87,384.83,199.87z M45.59,192.87h338.58c0.22-0.05,0.45-0.07,0.68-0.07H387c5.18,0,9.4-4.22,9.4-9.4
		v-17.2c0-5.45-4.37-9.4-10.4-9.4H42c-3.97,0-8.4,4.02-8.4,9.4v17.2c0,5.18,4.22,9.4,9.4,9.4h1.89
		C45.13,192.8,45.36,192.82,45.59,192.87z"/>
</g>
<g>
	<path class="st6" d="M232.21,54.35v166.39c0,9.5-7.7,17.21-17.21,17.21s-17.21-7.71-17.21-17.21V54.35H232.21z"/>
</g>
<g>
	<path class="st2" d="M215,241.45c-11.42,0-20.71-9.29-20.71-20.71V54.35c0-1.93,1.57-3.5,3.5-3.5h34.42c1.93,0,3.5,1.57,3.5,3.5
		v166.39C235.71,232.16,226.42,241.45,215,241.45z M201.29,57.85v162.89c0,7.56,6.15,13.71,13.71,13.71s13.71-6.15,13.71-13.71
		V57.85H201.29z"/>
</g>
</svg>
