<?xml version="1.0" standalone="no"?>
<!DOCTYPE svg PUBLIC "-//W3C//DTD SVG 20010904//EN"
 "http://www.w3.org/TR/2001/REC-SVG-20010904/DTD/svg10.dtd">
<svg version="1.0" xmlns="http://www.w3.org/2000/svg"
 width="900.000000pt" height="740.000000pt" viewBox="0 0 900.000000 740.000000"
 preserveAspectRatio="xMidYMid meet">

<g transform="translate(0.000000,740.000000) scale(0.100000,-0.100000)"
fill="#ffc107" stroke="none">
<path d="M705 6779 c5 -8 91 -139 191 -291 l183 -278 241 0 c132 0 240 2 240
5 0 3 -798 539 -849 570 -10 6 -12 4 -6 -6z"/>
<path d="M1761 6663 c0 -21 4 -58 7 -82 l7 -44 90 -23 c50 -13 135 -36 190
-50 110 -28 150 -42 143 -50 -3 -2 -94 -29 -202 -58 -109 -30 -200 -57 -203
-60 -6 -6 35 -707 41 -714 2 -1 32 4 67 12 89 21 129 29 784 171 319 69 652
142 740 161 88 20 327 71 530 115 738 159 1061 229 1120 244 33 8 78 17 100
21 22 4 46 10 54 14 15 8 10 9 -284 40 -104 11 -379 40 -610 65 -231 25 -460
50 -510 55 -49 5 -236 25 -415 45 -293 32 -397 43 -695 75 -49 5 -279 30 -509
55 -230 25 -425 45 -432 45 -10 0 -14 -12 -13 -37z"/>
<path d="M7530 6561 l-165 -37 -3 -375 c-2 -205 0 -547 4 -758 l6 -383 42 6
c22 4 103 18 179 33 l137 26 0 357 c0 597 -12 1170 -24 1169 -6 -1 -85 -18
-176 -38z"/>
<path d="M5914 6227 c-82 -31 -147 -103 -159 -178 -22 -129 68 -226 184 -200
96 21 170 91 189 178 11 48 0 121 -23 157 -33 50 -120 69 -191 43z"/>
<path d="M7060 6016 l-145 -32 -9 -51 -9 -51 -39 28 c-60 44 -132 55 -226 36
-265 -54 -445 -284 -460 -587 -13 -295 119 -498 337 -516 125 -10 246 34 340
125 30 28 56 52 57 52 2 0 6 -20 10 -45 5 -38 10 -45 29 -45 35 0 299 51 308
60 5 4 5 244 1 534 -7 526 -7 526 -28 525 -12 0 -86 -15 -166 -33z m-254 -387
c102 -49 122 -227 40 -346 -39 -56 -118 -103 -176 -103 -112 0 -183 152 -139
300 19 62 90 137 147 154 64 20 79 19 128 -5z"/>
<path d="M5948 5765 c-81 -18 -154 -35 -163 -38 -13 -6 -15 -65 -15 -512 l0
-507 28 6 c15 3 91 17 169 32 l143 26 2 497 c3 499 2 532 -10 530 -4 -1 -73
-16 -154 -34z"/>
<path d="M5341 5675 c-208 -58 -393 -245 -433 -437 -7 -32 -13 -56 -15 -54 -2
2 -10 29 -18 60 -57 219 -259 308 -504 222 -204 -71 -348 -241 -392 -464 -11
-57 -18 -75 -18 -52 -2 91 -54 220 -112 278 -42 43 -77 60 -144 73 -109 20
-217 -17 -316 -108 l-59 -55 0 30 c0 61 1 60 -138 32 l-127 -26 -6 -165 c-4
-90 -10 -399 -14 -687 l-7 -523 23 5 c13 3 77 15 142 26 65 11 123 22 128 26
5 3 9 108 9 240 l0 235 48 -28 c40 -24 57 -28 117 -27 222 3 425 215 452 473
3 34 8 60 10 57 2 -2 11 -34 18 -70 48 -227 221 -337 459 -293 122 22 233 78
324 162 40 37 72 71 72 76 0 5 -32 46 -72 91 -39 46 -73 85 -74 86 -1 2 -25
-14 -53 -36 -63 -50 -146 -82 -212 -82 -53 0 -80 10 -116 43 -31 27 -29 44 5
51 15 3 144 28 287 56 143 28 263 54 266 58 4 4 9 16 11 27 2 11 12 -13 21
-54 46 -199 160 -300 347 -309 168 -8 292 41 425 169 l80 78 -90 94 c-49 52
-95 95 -102 96 -6 0 -21 -12 -32 -28 -50 -70 -182 -102 -249 -61 -90 55 -97
239 -12 342 62 75 189 104 252 58 17 -12 33 -18 38 -14 4 5 44 63 89 128 93
137 93 134 -8 183 -46 23 -71 28 -151 30 -62 2 -114 -2 -149 -12z m-774 -489
c29 -34 29 -54 1 -61 -85 -20 -272 -54 -276 -51 -2 3 6 24 19 48 50 91 200
128 256 64z m-962 -229 c53 -53 69 -147 41 -241 -47 -156 -215 -206 -277 -83
-61 118 -10 297 96 343 55 24 103 18 140 -19z"/>
<path d="M2540 5479 c-240 -62 -400 -220 -431 -426 -20 -137 22 -289 98 -352
60 -49 129 -65 290 -66 128 0 144 -2 170 -21 92 -68 15 -184 -142 -214 -102
-19 -170 -4 -256 57 l-46 32 -81 -130 c-45 -72 -82 -134 -82 -139 0 -18 105
-104 158 -128 122 -56 341 -37 512 45 95 46 205 152 243 234 80 175 55 384
-58 495 -82 81 -137 98 -317 99 -129 0 -149 3 -167 19 -28 25 -28 84 0 120 58
73 239 106 331 60 15 -8 31 -14 36 -14 8 0 162 251 162 264 0 12 -94 59 -142
72 -73 19 -189 17 -278 -7z"/>
<path d="M7468 4779 c-80 -11 -152 -45 -192 -90 -38 -41 -61 -106 -51 -142 27
-96 60 -115 219 -127 168 -13 196 -28 196 -106 0 -70 -87 -124 -198 -124 -61
0 -96 13 -138 53 -33 30 -54 29 -83 -6 -17 -21 30 -74 94 -103 102 -48 273
-19 351 60 89 89 80 221 -19 272 -19 10 -76 20 -150 25 -136 11 -183 26 -193
64 -15 60 46 124 139 145 61 13 119 4 164 -27 l36 -24 25 24 c31 32 25 49 -30
80 -52 30 -94 36 -170 26z"/>
<path d="M6880 4669 c-58 -10 -120 -21 -139 -24 l-33 -6 6 -247 c4 -136 9
-268 12 -294 6 -47 7 -48 40 -48 l34 0 -6 109 -7 108 68 8 68 7 89 -96 c87
-93 91 -96 134 -96 50 0 54 9 21 42 -13 13 -54 55 -91 94 l-67 72 46 22 c69
33 99 85 103 174 2 59 -1 78 -20 110 -45 77 -104 92 -258 65z m170 -87 c40
-41 47 -90 21 -144 -11 -24 -30 -49 -42 -56 -19 -12 -174 -41 -221 -42 -14 0
-17 18 -23 115 -4 64 -5 119 -1 122 8 9 141 30 194 32 35 1 49 -4 72 -27z"/>
<path d="M6415 4591 c-117 -20 -150 -29 -148 -41 1 -8 5 -130 8 -271 4 -141
11 -262 15 -269 6 -10 45 -8 186 6 l179 19 3 39 3 38 -33 -5 c-71 -13 -268
-31 -273 -25 -3 3 -9 44 -12 91 -7 100 -24 88 156 112 63 8 119 19 124 24 11
11 -2 61 -17 61 -6 -1 -68 -9 -137 -18 l-126 -18 -6 85 c-4 47 -5 86 -4 88 2
1 66 12 142 23 77 12 143 24 147 26 5 3 8 18 8 35 0 26 -3 29 -32 28 -18 -1
-100 -13 -183 -28z"/>
<path d="M6018 4526 c-71 -13 -131 -25 -134 -29 -7 -7 7 -522 15 -535 3 -6 18
-8 32 -5 l26 5 -5 112 -5 113 94 12 c158 21 164 23 162 55 -1 16 -4 30 -7 33
-2 2 -54 -3 -114 -13 -61 -9 -118 -14 -126 -11 -13 5 -16 24 -16 92 0 47 1 85
3 86 1 0 61 10 132 22 l130 22 3 33 c3 30 2 32 -30 31 -18 -1 -90 -11 -160
-23z"/>
<path d="M5655 4465 c-71 -13 -132 -24 -134 -24 -5 -1 8 -401 15 -474 5 -46 9
-57 21 -53 8 3 19 6 24 6 5 0 9 49 9 110 l0 109 33 5 c17 3 55 8 82 11 113 14
115 14 115 50 l0 32 -92 -13 c-51 -7 -105 -13 -120 -14 l-28 0 0 88 0 88 120
18 120 18 0 34 c0 40 10 40 -165 9z"/>
<path d="M5228 4401 c-121 -39 -189 -218 -143 -376 41 -143 188 -195 297 -105
122 101 124 364 3 456 -39 29 -108 40 -157 25z m139 -96 c82 -86 64 -286 -30
-344 -69 -42 -151 -20 -189 52 -32 59 -32 184 -1 243 26 49 41 62 90 80 52 18
92 9 130 -31z"/>
<path d="M8300 3934 c-69 -7 -206 -20 -305 -29 -99 -9 -209 -19 -245 -22 -36
-4 -73 -5 -82 -4 -10 1 -70 -3 -135 -9 -65 -6 -336 -31 -603 -55 -267 -25
-532 -50 -590 -55 -58 -6 -352 -33 -655 -61 -302 -27 -768 -70 -1035 -94 -267
-25 -955 -88 -1530 -140 -575 -53 -1063 -99 -1084 -103 -35 -7 24 -24 520
-156 307 -82 681 -181 829 -221 149 -40 496 -133 772 -206 l502 -134 20 -55
c18 -52 496 -1498 562 -1703 17 -54 33 -96 34 -95 5 6 73 134 145 273 40 77
122 235 182 350 194 370 343 656 428 820 142 276 390 752 490 940 l95 180 440
3 441 2 43 133 c61 187 114 317 129 317 6 0 12 5 12 10 0 6 14 -3 32 -20 17
-17 33 -28 36 -25 3 3 11 -4 19 -14 7 -11 27 -22 43 -26 17 -4 30 -10 30 -15
0 -4 8 -7 17 -6 9 0 23 -10 30 -24 7 -14 13 -19 13 -11 0 11 5 10 20 -4 14
-13 23 -15 32 -7 19 15 47 -9 54 -47 4 -17 11 -31 16 -31 6 0 8 7 4 15 -5 13
-2 14 15 4 19 -10 19 -11 4 -23 -16 -11 -16 -13 -1 -13 9 0 16 4 16 9 0 4 7 8
16 8 10 0 14 5 10 16 -3 9 -2 12 5 9 6 -4 29 11 52 34 178 173 297 291 297
295 0 4 -3 5 -7 5 -5 -1 -64 -8 -133 -15z"/>
<path d="M8010 3548 c0 -4 6 -8 14 -8 8 0 17 4 20 8 2 4 -4 8 -15 8 -10 0 -19
-4 -19 -8z"/>
</g>
</svg>
